<?xml version="1.0" encoding="utf-8"?>
<!-- Generator: Adobe Illustrator 24.0.1, SVG Export Plug-In . SVG Version: 6.00 Build 0)  -->
<svg version="1.1" id="Capa_1" xmlns="http://www.w3.org/2000/svg" xmlns:xlink="http://www.w3.org/1999/xlink" x="0px" y="0px"
	 viewBox="0 0 67.5 76.4" style="enable-background:new 0 0 67.5 76.4;" xml:space="preserve">
<style type="text/css">
	.st0{fill:none;stroke:#000000;stroke-width:2;}
	.st1{fill:#1F1B1C;}
</style>
<path vector-effect="non-scaling-stroke" class="st0" d="M58.7,46.2c-10.6-0.1-21.1-0.1-31.5,0c-1.4,0-2.8-0.2-3.5-0.6
	c-2.6-1.4-2.3-4.5-0.3-6.4c3.9-3.9,7.8-7.7,11.7-11.7c0.1-0.1,0.1-0.3,0-0.4c-0.1-0.1-0.1-0.1-0.2-0.1c-2.8,0.1-5.6,0.2-8.5,0.2
	c-5.3-0.1-5.5-7.1,0.3-7.1c5.4,0,10.8,0,16.2,0c1.5,0,2.5,0.1,3,0.3c2.2,0.9,2.6,4.5,1.1,6c-3.9,3.9-7.8,7.8-11.7,11.7
	c-0.4,0.4-0.3,0.6,0.3,0.6c3.7,0,5.9,0,8.5,0c1.9,0,3.4-0.3,4.6-0.7c14.3-4.3,14.3-24.7,0.1-28.9c-1.4-0.4-3.3-0.6-5.8-0.6
	c-5.3,0-10.5,0-15.8,0c-2.6,0-4.5,0.2-5.8,0.6c-4.6,1.5-8.4,5.2-9.8,9.8c-0.4,1.3-0.6,3.4-0.6,6.1c0,4.8,0,9.6,0,14.4
	c0,2.5,0.2,4.4,0.6,5.8c2,6.9,7.6,11.9,15,11.9c5,0,10.1,0,15.1,0c3.1,0,5.4-0.2,6.9-0.6c5.2-1.4,8.6-4.9,10.5-10.3
	C58.9,46.4,58.8,46.2,58.7,46.2C58.7,46.2,58.7,46.2,58.7,46.2"/>
<path class="st1" d="M238.9,141.9c0.1,0,0.2,0.1,0.2,0.2c0,0,0,0,0,0.1c-1.8,5.5-5.3,8.9-10.5,10.3c-1.5,0.4-3.8,0.6-6.9,0.6
	c-5.1,0-10.1,0-15.1,0c-7.4,0-13-5.1-15-11.9c-0.4-1.4-0.6-3.3-0.6-5.8c0-4.8,0-9.6,0-14.4c0-2.7,0.2-4.7,0.6-6.1
	c1.4-4.6,5.2-8.4,9.8-9.8c1.3-0.4,3.2-0.6,5.8-0.6c5.3,0,10.5,0,15.8,0c2.5,0,4.4,0.2,5.8,0.6c14.3,4.1,14.3,24.6-0.1,28.9
	c-1.2,0.3-2.7,0.5-4.6,0.5c-2.9,0-5.8,0-8.5,0.1c-0.6,0-0.7-0.2-0.3-0.6c3.9-3.9,7.8-7.8,11.7-11.7c1.5-1.5,1.1-5.2-1.1-6
	c-0.5-0.2-1.5-0.3-3-0.3c-5.4,0-10.8,0-16.2,0c-5.7,0-5.6,7.1-0.3,7.1c2.9,0,5.7,0,8.5-0.2c0.1,0,0.3,0.1,0.3,0.3
	c0,0.1,0,0.2-0.1,0.2c-3.9,3.9-7.8,7.8-11.7,11.7c-1.9,1.9-2.3,5.1,0.3,6.4c0.7,0.4,1.9,0.6,3.5,0.5
	C217.8,141.8,228.3,141.8,238.9,141.9z"/>
<g>
	<path d="M17.1,62.6c0.1,0,0.2,0.1,0.2,0.2v0.8c0,0.1-0.1,0.2-0.2,0.2h-3.5c-0.8,0-1.1,0.3-1.1,1.1v0.1h4.6c0.1,0,0.2,0.1,0.2,0.2
		v0.6c0,0.1-0.1,0.2-0.2,0.2h-4.6v0.1c0,0.9,0.2,1.1,1.1,1.1h3.5c0.1,0,0.2,0.1,0.2,0.2v0.8c0,0.1-0.1,0.2-0.2,0.2h-3.6
		c-1.6,0-2.3-0.6-2.3-2.1v-1.4c0-1.6,0.6-2.1,2.3-2.1H17.1z"/>
	<path d="M23.6,62.6c0.4,0,0.6,0.2,0.6,0.6V64c0,0.4-0.1,0.5-0.4,0.7l-4.3,2.3c-0.1,0-0.1,0.1-0.1,0.1v0.1c0,0,0,0.1,0.1,0.1H24
		c0.1,0,0.2,0.1,0.2,0.2v0.8c0,0.1-0.1,0.2-0.2,0.2h-5.3c-0.4,0-0.6-0.2-0.6-0.6V67c0-0.4,0.1-0.5,0.4-0.7l4.3-2.3
		c0.1,0,0.1-0.1,0.1-0.1v-0.1c0,0,0-0.1-0.1-0.1h-4.4c-0.1,0-0.2-0.1-0.2-0.2v-0.8c0-0.1,0.1-0.2,0.2-0.2H23.6z"/>
	<path d="M33.8,62.6c0.1,0,0.2,0.1,0.2,0.2v0.8c0,0.1-0.1,0.2-0.2,0.2h-3.6c-0.8,0-1.1,0.2-1.1,1.1V66c0,0.9,0.2,1.1,1.1,1.1h3.6
		c0.1,0,0.2,0.1,0.2,0.2v0.8c0,0.1-0.1,0.2-0.2,0.2h-3.7c-1.6,0-2.3-0.6-2.3-2.1v-1.4c0-1.6,0.6-2.1,2.3-2.1H33.8z"/>
	<path d="M35.8,62.6c0.1,0,0.2,0.1,0.2,0.2V66c0,0.9,0.2,1.1,1.1,1.1h3.3c0.1,0,0.2,0.1,0.2,0.2v0.8c0,0.1-0.1,0.2-0.2,0.2h-3.3
		c-1.6,0-2.3-0.6-2.3-2.1v-3.4c0-0.1,0.1-0.2,0.2-0.2H35.8z"/>
	<path d="M42.4,62.6c0.1,0,0.2,0.1,0.2,0.2v5.3c0,0.1-0.1,0.2-0.2,0.2h-0.9c-0.1,0-0.2-0.1-0.2-0.2v-5.3c0-0.1,0.1-0.2,0.2-0.2H42.4
		z"/>
	<path d="M45.2,62.6c0.5,0,0.6,0.1,0.9,0.6l1.7,3.9c0,0.1,0.1,0.1,0.1,0.1H48c0.1,0,0.1,0,0.1-0.1l1.7-3.9c0.2-0.5,0.4-0.6,0.9-0.6
		h0.9c0.6,0,0.7,0.2,0.7,0.8v4.7c0,0.1-0.1,0.2-0.2,0.2h-0.8c-0.1,0-0.2-0.1-0.2-0.2v-4.2c0-0.1,0-0.1-0.1-0.1h-0.1
		c-0.1,0-0.1,0-0.1,0.1l-1.6,3.6c-0.3,0.6-0.5,0.8-1,0.8h-0.4c-0.5,0-0.8-0.2-1-0.8l-1.6-3.6c0,0,0-0.1-0.1-0.1h-0.1
		c0,0-0.1,0-0.1,0.1v4.2c0,0.1-0.1,0.2-0.2,0.2h-0.8c-0.1,0-0.2-0.1-0.2-0.2v-4.7c0-0.6,0.1-0.8,0.7-0.8H45.2z"/>
	<path d="M56.9,62.6c0.4,0,0.7,0.1,0.9,0.6l2.7,4.9c0.1,0.1,0,0.2-0.1,0.2h-1c-0.1,0-0.1,0-0.2-0.1l-0.6-1h-3.8l-0.6,1
		c0,0.1-0.1,0.1-0.2,0.1H53c-0.1,0-0.2-0.1-0.1-0.2l2.7-4.9c0.3-0.5,0.5-0.6,0.9-0.6H56.9z M55.3,66.2h2.8l-1.3-2.4
		c0,0,0-0.1-0.1-0.1h0c0,0-0.1,0-0.1,0.1L55.3,66.2z"/>
</g>
</svg>
