<?xml version="1.0" encoding="utf-8"?>
<!-- Generator: Adobe Illustrator 24.0.1, SVG Export Plug-In . SVG Version: 6.00 Build 0)  -->
<svg version="1.1" id="Capa_1" xmlns="http://www.w3.org/2000/svg" xmlns:xlink="http://www.w3.org/1999/xlink" x="0px" y="0px"
	 viewBox="0 0 230.8 260.8" style="enable-background:new 0 0 230.8 260.8;" xml:space="preserve">
<style type="text/css">
	.st0{fill:none;stroke:#154A75;stroke-width:3;}
	.st1{fill:#1F1B1C;}
	.st2{fill:#154A75;}
</style>
<path vector-effect="non-scaling-stroke" class="st0" d="M210.6,165.2c-41.9-0.3-83.4-0.2-124.6,0c-5.7,0-11.2-0.8-13.9-2.3
	c-10.3-5.4-8.9-18-1.3-25.4c15.5-15.2,30.9-30.6,46.2-46.2c0.4-0.4,0.4-1.1,0-1.5c-0.2-0.2-0.5-0.3-0.8-0.3
	c-11,0.5-22.2,0.8-33.7,0.6C61.5,90,60.8,62,83.5,61.9c21.4,0,42.9-0.1,64.3,0c5.8,0,9.8,0.4,11.9,1.3c8.8,3.5,10.3,17.9,4.3,23.9
	c-15.3,15.4-30.7,30.8-46.1,46.2c-1.7,1.7-1.2,2.4,1,2.4c14.5,0,23.2,0,33.6,0c7.5,0,13.6-1.2,18.2-2.6
	c56.7-16.9,56.7-97.9,0.2-114.3c-5.4-1.6-13.1-2.3-23-2.3c-20.9,0-41.8,0-62.6,0.1c-10.2,0-17.8,0.8-22.9,2.5
	c-18.4,5.9-33.1,20.7-38.8,39c-1.6,5.3-2.5,13.3-2.5,24c0,19.1,0,38.1,0,57.2c0,9.9,0.8,17.6,2.4,23.1c7.9,27.2,29.9,47.2,59.3,47.2
	c20,0,40,0.1,60,0.1c12.1,0,21.2-0.8,27.2-2.4c20.4-5.6,34.2-19.3,41.4-40.9c0.1-0.4-0.1-0.9-0.5-1
	C210.8,165.2,210.7,165.2,210.6,165.2"/>
<path class="st1" d="M425,402.8c0.1,0,0.2,0.1,0.2,0.2c0,0,0,0,0,0.1c-1.8,5.5-5.3,8.9-10.5,10.3c-1.5,0.4-3.8,0.6-6.9,0.6
	c-5.1,0-10.1,0-15.1,0c-7.4,0-13-5.1-15-11.9c-0.4-1.4-0.6-3.3-0.6-5.8c0-4.8,0-9.6,0-14.4c0-2.7,0.2-4.7,0.6-6.1
	c1.4-4.6,5.2-8.4,9.8-9.8c1.3-0.4,3.2-0.6,5.8-0.6c5.3,0,10.5,0,15.8,0c2.5,0,4.4,0.2,5.8,0.6c14.3,4.1,14.3,24.6-0.1,28.9
	c-1.2,0.3-2.7,0.5-4.6,0.5c-2.9,0-5.8,0-8.5,0.1c-0.6,0-0.7-0.2-0.3-0.6c3.9-3.9,7.8-7.8,11.7-11.7c1.5-1.5,1.1-5.2-1.1-6
	c-0.5-0.2-1.5-0.3-3-0.3c-5.4,0-10.8,0-16.2,0c-5.7,0-5.6,7.1-0.3,7.1c2.9,0,5.7,0,8.5-0.2c0.1,0,0.3,0.1,0.3,0.3
	c0,0.1,0,0.2-0.1,0.2c-3.9,3.9-7.8,7.8-11.7,11.7c-1.9,1.9-2.3,5.1,0.3,6.4c0.7,0.4,1.9,0.6,3.5,0.5
	C403.9,402.7,414.4,402.7,425,402.8z"/>
<g>
	<path class="st2" d="M46.2,230.2c0.5,0,0.7,0.2,0.7,0.7v3.1c0,0.5-0.3,0.7-0.7,0.7h-14c-3.3,0-4.3,1-4.3,4.4v0.3H46
		c0.5,0,0.7,0.2,0.7,0.7v2.5c0,0.5-0.2,0.7-0.7,0.7H27.9v0.5c0,3.4,0.9,4.4,4.3,4.4h14c0.5,0,0.7,0.2,0.7,0.7v3.1
		c0,0.5-0.3,0.7-0.7,0.7H32c-6.5,0-9-2.3-9-8.5v-5.5c0-6.2,2.5-8.5,9-8.5H46.2z"/>
	<path class="st2" d="M71.7,230.2c1.7,0,2.5,0.8,2.5,2.4v2.9c0,1.6-0.4,2-1.6,2.7l-17,9c-0.2,0.1-0.3,0.3-0.3,0.5v0.2
		c0,0.2,0.1,0.3,0.3,0.3h17.6c0.5,0,0.7,0.2,0.7,0.7v3.1c0,0.5-0.3,0.7-0.7,0.7H52.6c-1.8,0-2.5-0.8-2.5-2.4v-2.9
		c0-1.6,0.3-2,1.5-2.7l16.9-9c0.2-0.1,0.3-0.3,0.3-0.5V235c0-0.2-0.1-0.3-0.3-0.3H50.9c-0.5,0-0.7-0.2-0.7-0.7v-3.1
		c0-0.5,0.3-0.7,0.7-0.7H71.7z"/>
	<path class="st2" d="M112,230.2c0.5,0,0.7,0.2,0.7,0.7v3.1c0,0.5-0.2,0.7-0.7,0.7H97.7c-3.3,0-4.3,1-4.3,4.4v4.6
		c0,3.4,1,4.4,4.3,4.4H112c0.5,0,0.7,0.2,0.7,0.7v3.1c0,0.5-0.2,0.7-0.7,0.7H97.5c-6.5,0-9-2.3-9-8.5v-5.5c0-6.2,2.5-8.5,9-8.5H112z
		"/>
	<path class="st2" d="M120.3,230.2c0.5,0,0.7,0.2,0.7,0.7v12.8c0,3.4,1,4.4,4.3,4.4h13c0.5,0,0.7,0.2,0.7,0.7v3.1
		c0,0.5-0.2,0.7-0.7,0.7h-13.2c-6.5,0-9-2.3-9-8.5v-13.3c0-0.5,0.3-0.7,0.7-0.7H120.3z"/>
	<path class="st2" d="M146.1,230.2c0.5,0,0.7,0.2,0.7,0.7V252c0,0.5-0.2,0.7-0.7,0.7h-3.5c-0.5,0-0.7-0.2-0.7-0.7v-21.1
		c0-0.5,0.3-0.7,0.7-0.7H146.1z"/>
	<path class="st2" d="M157.4,230.2c1.9,0,2.6,0.4,3.4,2.4l6.7,15.4c0.1,0.2,0.2,0.3,0.5,0.3h0.4c0.2,0,0.4-0.1,0.5-0.3l6.7-15.4
		c0.9-2,1.5-2.4,3.4-2.4h3.4c2.2,0,2.8,0.9,2.8,3.3V252c0,0.5-0.3,0.7-0.7,0.7h-3.3c-0.5,0-0.7-0.2-0.7-0.7v-16.8
		c0-0.2-0.1-0.3-0.3-0.3h-0.3c-0.2,0-0.4,0.1-0.4,0.3l-6.5,14.4c-1.1,2.3-2,3.1-4.1,3.1h-1.5c-2.2,0-3.1-0.8-4.1-3.1l-6.5-14.4
		c-0.1-0.2-0.2-0.3-0.4-0.3H156c-0.2,0-0.3,0.1-0.3,0.3V252c0,0.5-0.2,0.7-0.7,0.7h-3.3c-0.5,0-0.7-0.2-0.7-0.7v-18.4
		c0-2.4,0.6-3.3,2.9-3.3H157.4z"/>
	<path class="st2" d="M203.7,230.2c1.6,0,2.6,0.5,3.7,2.4L218,252c0.2,0.4,0.1,0.7-0.4,0.7h-4.1c-0.4,0-0.6-0.1-0.7-0.4l-2.3-4.1
		h-15.1l-2.2,4.1c-0.2,0.3-0.4,0.4-0.7,0.4h-4.2c-0.5,0-0.6-0.3-0.4-0.7l10.5-19.3c1.1-1.9,2-2.4,3.4-2.4H203.7z M197.4,244.4h11.1
		l-5.1-9.4c-0.1-0.2-0.2-0.2-0.4-0.2h-0.2c-0.2,0-0.3,0.1-0.4,0.2L197.4,244.4z"/>
</g>
</svg>
